<?xml version="1.0" encoding="UTF-8" standalone="no"?>
<!DOCTYPE svg PUBLIC "-//W3C//DTD SVG 1.1//EN" "http://www.w3.org/Graphics/SVG/1.1/DTD/svg11.dtd">
<svg xmlns="http://www.w3.org/2000/svg" version="1.1" viewBox="0.00 0.00 866.00 698.00">
<path fill="#c8c8c8" d="
  M 221.51 479.48
  A 0.30 0.30 0.0 0 0 221.98 479.75
  Q 226.57 476.56 231.96 474.48
  Q 251.05 467.13 269.54 465.88
  Q 286.17 464.76 303.24 470.43
  Q 332.86 480.27 349.54 505.47
  Q 353.94 512.12 357.96 521.88
  Q 361.34 530.08 362.31 539.32
  Q 363.57 551.33 362.84 559.13
  C 362.10 567.04 360.73 575.17 357.96 582.84
  Q 351.99 599.33 340.63 612.02
  Q 315.83 639.70 278.22 641.57
  Q 271.36 641.91 259.36 639.98
  C 231.47 635.49 208.96 620.35 197.43 593.67
  Q 194.26 586.36 192.86 575.42
  Q 191.34 563.45 191.56 556.03
  Q 191.74 550.23 193.04 537.95
  Q 193.89 530.05 196.00 520.27
  Q 201.09 496.74 207.07 473.23
  Q 212.43 452.18 220.76 425.28
  Q 229.61 396.69 239.20 367.51
  Q 248.18 340.17 258.79 310.54
  Q 269.66 280.17 280.33 251.26
  Q 281.27 248.71 282.54 246.38
  A 0.59 0.58 -78.2 0 0 281.98 245.52
  Q 281.10 245.60 280.45 246.19
  Q 274.82 251.39 268.60 255.86
  C 244.68 273.10 217.79 290.52 191.52 306.75
  Q 181.22 313.12 175.09 318.09
  C 162.95 327.94 152.28 340.74 145.06 355.04
  Q 141.61 361.90 139.81 367.46
  C 137.51 374.55 135.42 381.97 134.37 389.34
  C 133.65 394.35 132.77 399.08 132.67 404.26
  Q 132.47 414.80 133.15 422.10
  Q 134.08 432.22 135.81 442.03
  Q 137.70 452.77 144.83 474.02
  Q 145.15 474.98 144.14 474.92
  Q 143.91 474.91 143.74 474.75
  Q 142.33 473.43 141.39 471.62
  Q 128.11 445.88 119.79 418.68
  C 114.31 400.79 111.87 382.76 110.49 364.37
  Q 110.24 361.02 110.51 357.56
  C 111.39 346.23 112.19 335.25 114.61 324.11
  C 120.81 295.64 134.04 268.87 152.25 246.78
  Q 167.52 228.25 183.01 214.75
  Q 196.71 202.83 215.92 189.90
  Q 232.51 178.73 246.58 169.63
  C 258.18 162.13 269.00 154.29 279.62 146.22
  C 307.28 125.20 332.28 105.45 356.52 83.83
  C 358.91 81.70 366.00 76.08 369.86 76.25
  A 1.79 1.78 -3.9 0 1 371.53 77.70
  C 372.44 82.53 370.31 88.63 368.09 92.90
  Q 362.66 103.37 357.24 112.97
  Q 354.70 117.46 348.27 130.40
  Q 344.08 138.82 339.31 147.85
  Q 329.46 166.52 323.31 181.04
  Q 316.14 198.00 308.29 215.86
  C 307.50 217.66 307.02 219.69 306.33 221.52
  Q 301.08 235.44 295.75 248.51
  Q 292.80 255.75 290.36 262.61
  C 286.77 272.68 282.45 282.65 279.03 292.75
  Q 276.23 301.03 273.32 308.78
  C 269.35 319.36 265.85 330.57 261.98 341.09
  Q 259.95 346.61 258.36 351.99
  C 254.64 364.59 250.11 376.99 246.36 389.76
  Q 243.61 399.12 240.01 410.52
  C 237.08 419.78 234.59 429.87 231.92 439.15
  Q 227.86 453.23 224.30 467.24
  Q 223.39 470.84 222.69 474.74
  C 222.40 476.38 221.59 477.82 221.51 479.48
  Z"
/>
<path fill="#909090" d="
  M 419.56 163.04
  L 419.29 165.56
  Q 419.21 166.28 418.97 165.60
  Q 418.79 165.09 418.86 164.56
  Q 418.93 164.06 418.43 164.04
  Q 417.79 164.02 417.71 163.35
  Q 417.62 162.64 416.92 162.80
  Q 416.13 162.98 415.31 162.96
  Q 412.48 162.89 410.05 164.00
  C 407.82 165.01 405.87 164.29 403.58 164.53
  Q 402.01 164.70 400.44 164.72
  Q 399.27 164.73 398.07 164.97
  Q 396.27 165.34 394.81 165.32
  Q 390.69 165.28 384.26 166.79
  C 383.13 167.05 382.46 166.49 381.38 166.33
  Q 380.58 166.21 381.00 165.52
  Q 381.35 164.97 380.94 164.44
  Q 380.66 164.08 380.78 163.63
  Q 382.28 158.25 384.76 154.15
  Q 385.97 152.15 386.87 149.85
  Q 387.74 147.60 389.14 145.38
  Q 389.98 144.04 390.75 139.96
  C 398.55 123.71 407.66 107.97 415.34 91.78
  Q 415.58 91.27 416.12 91.24
  A 0.65 0.64 86.6 0 1 416.81 91.86
  L 419.56 163.04
  Z"
/>
<path fill="#c8c8c8" d="
  M 469.10 127.01
  Q 466.66 121.01 464.08 109.25
  Q 463.68 107.40 461.06 102.20
  L 461.08 101.15
  Q 461.09 100.58 461.66 100.51
  Q 462.28 100.43 462.51 101.24
  C 463.46 104.56 464.45 107.67 465.10 111.14
  Q 466.60 119.11 469.10 127.01
  Z"
/>
<path fill="#2a2a2a" d="
  M 461.06 102.20
  Q 463.68 107.40 464.08 109.25
  Q 466.66 121.01 469.10 127.01
  L 474.31 141.96
  Q 478.64 154.97 484.94 167.01
  L 489.28 175.75
  Q 503.68 204.95 524.69 229.82
  Q 528.69 234.55 533.07 238.78
  Q 544.60 250.46 547.83 253.41
  Q 589.59 291.53 644.95 305.34
  Q 643.41 307.53 638.47 307.43
  Q 628.91 308.36 619.12 308.60
  Q 615.33 308.70 606.77 310.25
  Q 594.59 311.48 582.36 312.56
  Q 576.36 313.09 571.16 313.82
  C 566.17 314.53 561.29 315.15 556.32 316.20
  Q 542.84 319.04 529.29 321.30
  Q 513.80 323.89 506.64 325.68
  Q 496.10 328.33 485.09 330.62
  Q 481.60 311.69 478.21 292.51
  Q 477.15 286.53 476.41 280.61
  C 475.74 275.27 474.45 270.07 473.72 264.72
  Q 472.14 253.17 470.50 242.11
  Q 469.36 234.43 468.33 223.57
  C 467.56 215.44 466.19 206.71 465.52 198.40
  Q 464.06 180.15 462.64 160.89
  Q 461.93 151.20 461.73 140.76
  Q 461.45 125.75 460.96 109.50
  Q 460.90 107.73 461.06 102.20
  Z"
/>
<path fill="#2a2a2a" d="
  M 607.66 138.09
  Q 621.22 148.02 623.96 163.26
  Q 626.39 176.78 620.30 189.38
  Q 615.89 198.52 607.26 204.05
  Q 597.19 210.50 586.00 211.00
  Q 577.30 211.39 567.95 206.98
  L 558.88 201.15
  A 40.02 40.02 0.0 0 1 546.44 164.86
  A 40.06 40.05 -14.8 0 1 560.48 140.72
  A 40.02 39.99 26.5 0 1 587.52 131.67
  A 39.99 39.98 -27.3 0 1 607.66 138.09
  Z"
/>
<path fill="#e0e0e0" d="
  M 607.66 138.09
  A 40.03 40.02 9.8 0 1 624.75 162.27
  A 39.97 39.77 43.5 0 1 625.21 178.79
  A 40.01 39.94 72.1 0 1 614.76 199.28
  A 39.99 39.99 0.0 0 1 577.03 210.64
  A 40.48 39.99 -24.6 0 1 567.56 207.19
  Q 567.46 206.73 567.95 206.98
  Q 577.30 211.39 586.00 211.00
  Q 597.19 210.50 607.26 204.05
  Q 615.89 198.52 620.30 189.38
  Q 626.39 176.78 623.96 163.26
  Q 621.22 148.02 607.66 138.09
  Z"
/>
<path fill="#7f7f7f" d="
  M 390.75 139.96
  Q 389.98 144.04 389.14 145.38
  Q 387.74 147.60 386.87 149.85
  Q 385.97 152.15 384.76 154.15
  Q 382.28 158.25 380.78 163.63
  Q 380.66 164.08 380.94 164.44
  Q 381.35 164.97 381.00 165.52
  Q 380.58 166.21 381.38 166.33
  C 382.46 166.49 383.13 167.05 384.26 166.79
  Q 390.69 165.28 394.81 165.32
  Q 396.27 165.34 398.07 164.97
  Q 399.27 164.73 400.44 164.72
  Q 402.01 164.70 403.58 164.53
  C 405.87 164.29 407.82 165.01 410.05 164.00
  Q 412.48 162.89 415.31 162.96
  Q 416.13 162.98 416.92 162.80
  Q 417.62 162.64 417.71 163.35
  Q 417.79 164.02 418.43 164.04
  Q 418.93 164.06 418.86 164.56
  Q 418.79 165.09 418.97 165.60
  Q 419.21 166.28 419.29 165.56
  L 419.56 163.04
  Q 420.18 173.43 421.15 183.80
  Q 422.16 194.63 422.75 203.74
  C 423.64 217.46 425.49 231.11 426.73 244.57
  Q 427.61 254.14 428.85 263.64
  Q 433.28 297.55 435.21 310.50
  Q 436.66 320.23 441.08 343.97
  Q 439.95 345.76 438.75 346.10
  C 405.06 355.74 372.46 369.40 340.66 384.05
  Q 330.59 388.68 320.58 393.82
  Q 318.41 394.93 309.63 398.63
  Q 300.93 402.30 287.29 410.85
  Q 286.30 412.17 284.27 412.63
  A 0.57 0.56 87.9 0 1 283.59 411.99
  Q 283.94 409.75 284.58 407.79
  C 288.70 395.28 292.38 382.40 296.43 369.85
  Q 318.77 300.55 347.76 232.73
  Q 365.76 190.59 387.29 146.51
  Q 388.90 143.21 390.75 139.96
  Z"
/>
<path fill="#c8c8c8" d="
  M 474.31 141.96
  L 484.94 167.01
  Q 478.64 154.97 474.31 141.96
  Z"
/>
<path fill="#909090" d="
  M 489.28 175.75
  Q 502.00 199.28 517.98 220.45
  C 522.47 226.38 528.00 232.69 533.07 238.78
  Q 528.69 234.55 524.69 229.82
  Q 503.68 204.95 489.28 175.75
  Z"
/>
<path fill="#c8c8c8" d="
  M 558.88 201.15
  L 567.95 206.98
  Q 567.46 206.73 567.56 207.19
  A 40.11 39.95 79.7 0 1 558.88 201.15
  Z"
/>
<path fill="#7f7f7f" d="
  M 644.95 305.34
  Q 647.95 305.85 650.48 306.83
  Q 652.33 307.55 650.35 307.63
  L 646.24 307.80
  Q 645.67 306.54 643.86 307.00
  Q 642.25 307.40 641.58 307.42
  Q 640.07 307.44 638.47 307.43
  Q 643.41 307.53 644.95 305.34
  Z"
/>
<path fill="#909090" d="
  M 646.24 307.80
  L 606.77 310.25
  Q 615.33 308.70 619.12 308.60
  Q 628.91 308.36 638.47 307.43
  Q 640.07 307.44 641.58 307.42
  Q 642.25 307.40 643.86 307.00
  Q 645.67 306.54 646.24 307.80
  Z"
/>
<path fill="#909090" d="
  M 529.29 321.30
  Q 502.35 327.33 487.25 330.91
  Q 486.13 331.18 485.09 330.62
  Q 496.10 328.33 506.64 325.68
  Q 513.80 323.89 529.29 321.30
  Z"
/>
<path fill="#e0e0e0" d="
  M 441.08 343.97
  Q 441.30 348.96 437.75 350.56
  Q 430.40 353.87 416.20 358.44
  Q 407.65 361.20 400.84 363.65
  C 390.45 367.40 380.42 371.67 370.33 375.61
  C 365.75 377.40 360.90 378.26 356.48 380.66
  Q 351.30 383.48 346.69 385.63
  Q 341.29 388.16 335.35 389.16
  Q 331.59 389.79 325.41 392.58
  Q 306.29 401.21 287.29 410.85
  Q 300.93 402.30 309.63 398.63
  Q 318.41 394.93 320.58 393.82
  Q 330.59 388.68 340.66 384.05
  C 372.46 369.40 405.06 355.74 438.75 346.10
  Q 439.95 345.76 441.08 343.97
  Z"
/>
<path fill="#2a2a2a" d="
  M 637.36 353.44
  L 626.26 354.90
  Q 625.81 354.96 625.41 355.19
  Q 624.78 355.55 624.06 355.66
  Q 613.87 357.15 602.63 361.90
  Q 599.03 363.42 595.34 364.76
  Q 591.92 366.00 588.53 368.42
  Q 582.75 372.53 577.62 377.43
  C 576.79 378.21 575.59 378.40 574.95 379.44
  C 573.84 381.28 572.12 382.43 570.78 384.06
  Q 562.63 393.96 558.10 402.12
  Q 553.00 411.30 547.93 425.37
  C 547.48 426.62 546.71 427.29 546.54 428.58
  Q 546.42 429.47 546.16 430.37
  Q 544.46 436.24 542.64 442.31
  Q 541.13 447.33 540.71 451.31
  Q 540.21 456.03 540.45 460.75
  Q 540.82 467.93 540.66 475.10
  Q 540.66 475.21 540.31 479.63
  Q 539.94 484.41 541.52 489.01
  C 542.81 492.75 543.67 498.31 545.71 502.43
  Q 547.21 505.47 548.50 508.52
  Q 548.87 509.38 549.80 509.36
  A 1.11 1.09 -22.3 0 1 550.61 509.69
  Q 551.48 510.58 552.04 511.64
  Q 552.58 512.68 553.43 513.55
  Q 555.91 516.07 557.97 518.91
  Q 559.08 520.45 559.49 522.23
  Q 560.10 524.79 562.15 526.08
  Q 562.63 526.37 562.45 526.91
  L 562.24 527.56
  C 559.54 525.88 557.28 523.60 554.81 521.64
  Q 552.59 519.87 550.00 518.11
  Q 547.19 516.20 545.32 513.77
  Q 543.85 511.85 542.28 510.37
  Q 540.64 508.81 539.37 507.15
  Q 537.12 504.21 534.52 502.13
  C 530.40 498.83 528.42 494.39 525.42 490.26
  Q 522.35 486.06 519.98 481.44
  C 518.64 478.84 516.49 477.02 515.36 474.43
  C 514.05 471.43 512.00 468.94 511.07 465.82
  C 510.43 463.63 509.26 461.82 508.43 459.70
  Q 506.26 454.15 503.92 448.05
  Q 503.07 445.83 502.98 443.22
  Q 502.92 441.15 501.93 439.00
  L 501.20 427.03
  Q 501.58 424.06 502.12 421.10
  Q 502.46 419.30 501.59 416.99
  L 502.63 410.41
  Q 504.02 406.85 505.30 403.18
  Q 506.80 398.88 508.38 396.16
  C 521.25 373.80 545.93 360.66 570.25 354.69
  Q 598.40 347.78 627.75 351.29
  Q 632.76 351.88 637.36 353.44
  Z"
/>
<path fill="#121212" d="
  M 637.36 353.44
  Q 639.60 353.42 642.74 354.23
  Q 650.46 356.23 658.47 358.44
  C 674.25 362.79 689.01 370.04 702.40 379.13
  Q 713.12 386.40 722.49 394.78
  Q 746.33 416.95 759.88 445.45
  Q 760.40 450.82 763.18 454.95
  Q 763.45 455.35 763.53 455.83
  L 764.41 460.73
  Q 763.91 460.84 763.78 460.23
  A 0.37 0.36 70.1 0 0 763.25 459.98
  Q 763.06 460.09 762.85 460.35
  Q 757.59 445.33 746.29 435.71
  Q 728.03 420.16 703.80 419.67
  C 670.47 418.99 651.12 449.72 647.33 479.05
  C 643.58 508.00 658.21 533.48 686.93 541.72
  Q 694.09 543.77 700.63 544.56
  Q 707.65 545.40 715.26 543.81
  Q 716.51 543.55 717.78 543.39
  Q 719.04 543.22 720.24 542.88
  Q 726.35 541.11 732.01 538.20
  Q 733.58 538.19 732.99 539.72
  Q 725.91 544.53 717.39 547.46
  Q 712.36 548.46 708.16 551.46
  Q 707.74 551.76 707.23 551.68
  Q 704.64 551.27 702.39 552.62
  A 1.17 1.10 -54.0 0 1 701.59 552.77
  Q 698.80 552.24 696.52 553.54
  C 694.96 554.43 693.42 554.63 691.74 555.11
  L 675.91 557.37
  Q 666.57 556.87 656.92 557.08
  C 654.30 557.14 651.76 558.02 648.94 558.13
  L 642.30 557.85
  C 641.03 558.11 640.22 557.21 638.88 557.12
  Q 635.95 556.94 633.08 556.90
  L 616.01 553.57
  Q 615.96 554.08 615.77 553.38
  L 596.95 547.50
  C 592.86 545.41 588.32 543.59 584.62 540.95
  Q 583.03 539.82 581.12 539.16
  Q 579.38 538.56 577.65 537.33
  Q 570.20 532.00 562.24 527.56
  L 562.45 526.91
  Q 562.63 526.37 562.15 526.08
  Q 560.10 524.79 559.49 522.23
  Q 559.08 520.45 557.97 518.91
  Q 555.91 516.07 553.43 513.55
  Q 552.58 512.68 552.04 511.64
  Q 551.48 510.58 550.61 509.69
  A 1.11 1.09 -22.3 0 0 549.80 509.36
  Q 548.87 509.38 548.50 508.52
  Q 547.21 505.47 545.71 502.43
  C 543.67 498.31 542.81 492.75 541.52 489.01
  Q 539.94 484.41 540.31 479.63
  Q 540.66 475.21 540.66 475.10
  Q 540.82 467.93 540.45 460.75
  Q 540.21 456.03 540.71 451.31
  Q 541.13 447.33 542.64 442.31
  Q 544.46 436.24 546.16 430.37
  Q 546.42 429.47 546.54 428.58
  C 546.71 427.29 547.48 426.62 547.93 425.37
  Q 553.00 411.30 558.10 402.12
  Q 562.63 393.96 570.78 384.06
  C 572.12 382.43 573.84 381.28 574.95 379.44
  C 575.59 378.40 576.79 378.21 577.62 377.43
  Q 582.75 372.53 588.53 368.42
  Q 591.92 366.00 595.34 364.76
  Q 599.03 363.42 602.63 361.90
  Q 613.87 357.15 624.06 355.66
  Q 624.78 355.55 625.41 355.19
  Q 625.81 354.96 626.26 354.90
  L 637.36 353.44
  Z"
/>
<path fill="#7f7f7f" d="
  M 467.37 455.08
  Q 464.12 448.21 461.16 441.23
  Q 461.09 441.07 461.15 440.87
  A 0.62 0.59 43.3 0 0 461.13 440.53
  Q 456.28 427.98 451.99 415.24
  C 451.34 413.33 450.26 412.17 450.82 409.72
  Q 450.90 409.37 450.68 409.10
  Q 450.09 408.37 450.12 407.41
  Q 450.14 406.87 449.87 406.40
  Q 448.26 403.64 448.16 400.41
  Q 448.14 399.98 447.85 399.66
  Q 447.06 398.79 446.99 397.63
  Q 446.95 396.99 446.35 397.19
  Q 444.92 397.67 443.94 398.74
  Q 443.46 399.27 443.84 399.87
  Q 444.53 400.95 444.53 402.25
  Q 444.53 403.66 445.09 405.15
  Q 446.23 408.14 445.87 411.21
  A 1.31 1.30 27.2 0 0 446.21 412.27
  Q 446.78 412.90 446.67 413.75
  Q 446.37 415.95 447.62 417.60
  Q 447.93 418.01 447.89 418.53
  Q 447.73 420.29 449.07 421.46
  Q 449.37 421.73 449.29 422.13
  Q 448.95 423.67 450.12 425.05
  Q 450.47 425.44 450.32 425.95
  Q 449.18 429.99 449.92 433.52
  Q 450.04 434.10 449.58 434.47
  Q 448.35 435.47 449.44 436.45
  Q 449.74 436.72 449.58 437.09
  Q 449.30 437.77 449.95 438.13
  Q 451.66 439.08 452.71 440.21
  A 1.42 1.39 -66.0 0 1 453.07 441.18
  Q 452.98 444.51 453.17 447.52
  C 453.24 448.58 452.74 449.23 452.66 450.23
  Q 452.61 450.78 452.18 451.14
  Q 451.20 451.96 450.42 452.86
  Q 449.60 453.79 448.56 454.38
  Q 445.36 456.20 442.92 458.19
  Q 441.41 459.43 440.91 461.48
  Q 440.55 462.96 439.24 464.47
  Q 437.10 466.93 434.06 466.34
  Q 433.44 466.22 433.00 466.65
  Q 432.78 466.86 432.48 466.77
  Q 432.11 466.67 431.74 466.66
  Q 428.01 466.64 424.89 467.71
  Q 423.40 468.22 422.01 467.99
  Q 420.42 467.73 418.91 467.19
  Q 417.72 466.76 416.51 466.61
  Q 415.24 466.44 414.01 466.32
  C 412.74 466.20 412.21 464.91 411.03 464.61
  Q 408.58 463.99 405.88 463.63
  Q 399.82 462.83 393.71 461.58
  Q 391.75 461.18 389.66 460.11
  Q 387.56 459.03 385.48 457.99
  Q 380.70 455.59 372.99 456.34
  Q 371.94 456.45 372.65 457.23
  Q 372.75 457.33 372.82 457.45
  Q 373.00 457.71 373.29 457.81
  Q 375.16 458.48 376.54 459.91
  Q 376.77 460.14 377.09 460.07
  Q 377.22 460.04 377.32 460.14
  Q 377.48 460.30 377.57 460.52
  Q 378.23 462.02 379.79 462.17
  Q 380.25 462.22 380.66 462.44
  Q 381.42 462.85 382.33 462.87
  Q 382.85 462.88 383.26 463.20
  Q 384.41 464.08 386.05 464.07
  Q 386.23 464.07 386.40 464.14
  Q 386.61 464.22 386.60 464.45
  Q 386.57 465.05 387.16 464.94
  Q 388.69 464.66 389.72 465.77
  Q 390.02 466.10 390.46 466.17
  Q 394.38 466.80 396.45 468.10
  Q 398.34 469.28 399.95 469.55
  Q 401.52 469.82 403.00 470.46
  Q 405.04 471.35 407.15 472.04
  Q 409.18 472.70 411.10 473.90
  Q 413.01 475.09 415.05 476.04
  Q 417.02 476.95 418.61 477.95
  Q 420.50 479.14 422.58 480.19
  A 1.35 1.28 1.5 0 1 423.16 480.77
  L 423.30 481.04
  Q 423.54 481.52 424.04 481.72
  Q 426.36 482.63 427.79 484.70
  Q 415.98 478.17 403.78 472.41
  C 389.60 465.71 374.40 461.09 359.28 456.89
  Q 333.91 449.84 306.85 448.66
  Q 306.17 448.63 305.59 448.28
  A 0.34 0.34 0.0 0 1 305.63 447.68
  Q 349.02 427.70 388.56 411.99
  C 396.87 408.69 404.65 404.64 413.34 402.10
  Q 415.28 401.53 417.50 400.43
  Q 419.69 399.34 421.65 398.70
  Q 428.36 397.24 434.63 395.06
  Q 434.77 395.01 438.95 393.84
  Q 441.88 393.02 444.00 391.15
  Q 445.49 390.08 446.77 391.47
  Q 447.39 392.15 447.88 393.69
  Q 457.46 424.41 467.37 455.08
  Z"
/>
<path fill="#e0e0e0" d="
  M 444.00 391.15
  Q 441.88 393.02 438.95 393.84
  Q 434.77 395.01 434.63 395.06
  Q 428.36 397.24 421.65 398.70
  Q 427.28 394.88 429.48 394.69
  Q 433.76 394.33 435.01 393.74
  Q 440.24 391.27 444.00 391.15
  Z"
/>
<path fill="#e0e0e0" d="
  M 722.49 394.78
  Q 734.92 405.23 744.92 418.03
  Q 753.52 429.06 759.75 441.62
  C 760.44 443.00 760.17 444.05 759.88 445.45
  Q 746.33 416.95 722.49 394.78
  Z"
/>
<path fill="#909090" d="
  M 467.37 455.08
  Q 469.96 461.83 472.39 468.68
  C 472.79 469.81 472.85 471.23 473.26 472.47
  Q 475.94 480.54 478.79 487.08
  C 480.51 491.02 481.57 495.22 483.82 498.92
  Q 485.08 500.99 485.94 503.15
  C 486.97 505.72 487.92 508.26 489.56 510.66
  Q 490.64 512.22 491.40 513.70
  Q 492.63 517.31 494.34 520.59
  Q 494.48 520.86 494.62 521.42
  Q 494.85 522.35 495.56 521.85
  Q 496.70 526.29 498.21 530.74
  C 499.01 533.08 500.36 534.87 501.26 537.09
  Q 501.63 537.97 501.02 537.23
  Q 496.59 531.79 491.30 527.62
  Q 481.08 519.58 471.67 512.33
  Q 454.85 499.37 427.79 484.70
  Q 426.36 482.63 424.04 481.72
  Q 423.54 481.52 423.30 481.04
  L 423.16 480.77
  A 1.35 1.28 1.5 0 0 422.58 480.19
  Q 420.50 479.14 418.61 477.95
  Q 417.02 476.95 415.05 476.04
  Q 413.01 475.09 411.10 473.90
  Q 409.18 472.70 407.15 472.04
  Q 405.04 471.35 403.00 470.46
  Q 401.52 469.82 399.95 469.55
  Q 398.34 469.28 396.45 468.10
  Q 394.38 466.80 390.46 466.17
  Q 390.02 466.10 389.72 465.77
  Q 388.69 464.66 387.16 464.94
  Q 386.57 465.05 386.60 464.45
  Q 386.61 464.22 386.40 464.14
  Q 386.23 464.07 386.05 464.07
  Q 384.41 464.08 383.26 463.20
  Q 382.85 462.88 382.33 462.87
  Q 381.42 462.85 380.66 462.44
  Q 380.25 462.22 379.79 462.17
  Q 378.23 462.02 377.57 460.52
  Q 377.48 460.30 377.32 460.14
  Q 377.22 460.04 377.09 460.07
  Q 376.77 460.14 376.54 459.91
  Q 375.16 458.48 373.29 457.81
  Q 373.00 457.71 372.82 457.45
  Q 372.75 457.33 372.65 457.23
  Q 371.94 456.45 372.99 456.34
  Q 380.70 455.59 385.48 457.99
  Q 387.56 459.03 389.66 460.11
  Q 391.75 461.18 393.71 461.58
  Q 399.82 462.83 405.88 463.63
  Q 408.58 463.99 411.03 464.61
  C 412.21 464.91 412.74 466.20 414.01 466.32
  Q 415.24 466.44 416.51 466.61
  Q 417.72 466.76 418.91 467.19
  Q 420.42 467.73 422.01 467.99
  Q 423.40 468.22 424.89 467.71
  Q 428.01 466.64 431.74 466.66
  Q 432.11 466.67 432.48 466.77
  Q 432.78 466.86 433.00 466.65
  Q 433.44 466.22 434.06 466.34
  Q 437.10 466.93 439.24 464.47
  Q 440.55 462.96 440.91 461.48
  Q 441.41 459.43 442.92 458.19
  Q 445.36 456.20 448.56 454.38
  Q 449.60 453.79 450.42 452.86
  Q 451.20 451.96 452.18 451.14
  Q 452.61 450.78 452.66 450.23
  C 452.74 449.23 453.24 448.58 453.17 447.52
  Q 452.98 444.51 453.07 441.18
  A 1.42 1.39 -66.0 0 0 452.71 440.21
  Q 451.66 439.08 449.95 438.13
  Q 449.30 437.77 449.58 437.09
  Q 449.74 436.72 449.44 436.45
  Q 448.35 435.47 449.58 434.47
  Q 450.04 434.10 449.92 433.52
  Q 449.18 429.99 450.32 425.95
  Q 450.47 425.44 450.12 425.05
  Q 448.95 423.67 449.29 422.13
  Q 449.37 421.73 449.07 421.46
  Q 447.73 420.29 447.89 418.53
  Q 447.93 418.01 447.62 417.60
  Q 446.37 415.95 446.67 413.75
  Q 446.78 412.90 446.21 412.27
  A 1.31 1.30 27.2 0 1 445.87 411.21
  Q 446.23 408.14 445.09 405.15
  Q 444.53 403.66 444.53 402.25
  Q 444.53 400.95 443.84 399.87
  Q 443.46 399.27 443.94 398.74
  Q 444.92 397.67 446.35 397.19
  Q 446.95 396.99 446.99 397.63
  Q 447.06 398.79 447.85 399.66
  Q 448.14 399.98 448.16 400.41
  Q 448.26 403.64 449.87 406.40
  Q 450.14 406.87 450.12 407.41
  Q 450.09 408.37 450.68 409.10
  Q 450.90 409.37 450.82 409.72
  C 450.26 412.17 451.34 413.33 451.99 415.24
  Q 456.28 427.98 461.13 440.53
  A 0.62 0.59 43.3 0 1 461.15 440.87
  Q 461.09 441.07 461.16 441.23
  Q 464.12 448.21 467.37 455.08
  Z"
/>
<path fill="#e0e0e0" d="
  M 502.63 410.41
  L 501.59 416.99
  C 499.92 414.65 501.77 412.52 502.63 410.41
  Z"
/>
<path fill="#e0e0e0" d="
  M 762.85 460.35
  Q 771.49 493.57 751.96 520.48
  Q 744.51 530.75 732.01 538.20
  Q 726.35 541.11 720.24 542.88
  Q 719.04 543.22 717.78 543.39
  Q 716.51 543.55 715.26 543.81
  Q 707.65 545.40 700.63 544.56
  Q 694.09 543.77 686.93 541.72
  C 658.21 533.48 643.58 508.00 647.33 479.05
  C 651.12 449.72 670.47 418.99 703.80 419.67
  Q 728.03 420.16 746.29 435.71
  Q 757.59 445.33 762.85 460.35
  Z"
/>
<path fill="#c8c8c8" d="
  M 501.20 427.03
  L 501.93 439.00
  Q 502.03 439.15 502.02 439.50
  C 501.65 438.39 501.13 437.41 501.00 436.30
  Q 500.44 431.52 501.20 427.03
  Z"
/>
<path fill="#909090" d="
  M 501.93 439.00
  Q 502.92 441.15 502.98 443.22
  Q 501.61 441.96 502.02 439.50
  Q 502.03 439.15 501.93 439.00
  Z"
/>
<ellipse fill="#121212" cx="0.00" cy="0.00" transform="translate(711.03,483.77) rotate(109.9)" rx="34.57" ry="30.13"/>
<path fill="#2a2a2a" d="
  M 764.41 460.73
  L 766.46 467.66
  Q 766.14 469.81 766.62 471.53
  Q 767.64 474.47 767.40 477.43
  L 767.69 483.97
  L 765.37 498.20
  Q 765.43 499.41 765.00 500.38
  Q 764.29 501.92 763.80 503.50
  Q 763.18 505.52 762.66 506.64
  Q 758.69 515.12 756.78 517.99
  Q 753.48 522.99 745.33 531.05
  L 736.31 538.04
  Q 734.93 538.23 732.99 539.72
  Q 733.58 538.19 732.01 538.20
  Q 744.51 530.75 751.96 520.48
  Q 771.49 493.57 762.85 460.35
  Q 763.06 460.09 763.25 459.98
  A 0.37 0.36 70.1 0 1 763.78 460.23
  Q 763.91 460.84 764.41 460.73
  Z"
/>
<path fill="#7f7f7f" d="
  M 766.46 467.66
  Q 767.39 469.04 766.62 471.53
  Q 766.14 469.81 766.46 467.66
  Z"
/>
<path fill="#909090" d="
  M 767.40 477.43
  Q 768.48 479.44 767.98 482.00
  L 767.69 483.97
  L 767.40 477.43
  Z"
/>
<path fill="#e0e0e0" d="
  M 767.98 482.00
  Q 768.23 485.30 768.11 488.69
  C 768.04 490.48 766.96 491.76 767.06 493.49
  Q 767.20 496.06 765.37 498.20
  L 767.69 483.97
  L 767.98 482.00
  Z"
/>
<path fill="#c8c8c8" d="
  M 765.00 500.38
  Q 765.29 504.93 763.96 506.50
  Q 761.38 509.54 759.87 514.01
  C 759.34 515.56 758.49 517.25 757.36 518.46
  Q 754.05 522.00 750.65 526.88
  Q 748.47 530.00 745.33 531.05
  Q 753.48 522.99 756.78 517.99
  Q 758.69 515.12 762.66 506.64
  Q 763.18 505.52 763.80 503.50
  Q 764.29 501.92 765.00 500.38
  Z"
/>
<path fill="#e0e0e0" d="
  M 491.40 513.70
  Q 494.18 517.41 495.56 521.85
  Q 494.85 522.35 494.62 521.42
  Q 494.48 520.86 494.34 520.59
  Q 492.63 517.31 491.40 513.70
  Z"
/>
<path fill="#e0e0e0" d="
  M 736.31 538.04
  C 733.06 541.36 730.00 544.21 725.75 545.21
  Q 724.23 545.57 721.38 547.71
  Q 720.98 548.01 720.48 548.02
  Q 719.04 548.03 717.39 547.46
  Q 725.91 544.53 732.99 539.72
  Q 734.93 538.23 736.31 538.04
  Z"
/>
<path fill="#c8c8c8" d="
  M 596.95 547.50
  L 615.77 553.38
  Q 614.02 553.09 612.26 552.97
  Q 610.08 552.83 608.77 552.49
  Q 602.56 550.90 596.95 547.50
  Z"
/>
<path fill="#e0e0e0" d="
  M 633.08 556.90
  L 631.49 557.49
  Q 630.96 557.68 630.46 557.44
  Q 626.47 555.58 621.72 555.56
  C 619.62 555.55 617.85 554.53 616.01 553.57
  L 633.08 556.90
  Z"
/>
<path fill="#909090" d="
  M 691.74 555.11
  Q 690.15 556.34 687.68 556.14
  Q 685.90 556.00 684.90 556.38
  C 683.68 556.85 682.64 557.62 681.38 557.75
  Q 678.66 558.03 675.91 557.37
  L 691.74 555.11
  Z"
/>
<path fill="#c8c8c8" d="
  M 648.94 558.13
  Q 645.63 559.21 642.30 557.85
  L 648.94 558.13
  Z"
/>
</svg>
